<?xml version="1.0" encoding="utf-8"?><svg xmlns="http://www.w3.org/2000/svg" xmlns:xlink="http://www.w3.org/1999/xlink"><symbol viewBox="0 0 226.34 42.18" id="arrow-down"><path stroke="#231f20" stroke-miterlimit="10" d="M.17.47l113 41.18 113-41.18"/></symbol><symbol viewBox="0 0 66 62" id="construction"><path d="M25.004 32.68l26.28 26.28a3.875 3.875 0 005.48 0l6.76-6.76a3.874 3.874 0 000-5.48l-26.28-26.273" stroke="#000" stroke-width="2" stroke-miterlimit="10"/><path d="M25.004 32.68l22.453-22.452a3.323 3.323 0 00-1.821-5.63l-16.41-2.65a3.331 3.331 0 00-2.88.93L2.876 26.347a3.325 3.325 0 000 4.697l9.531 9.531a3.321 3.321 0 004.7 0l7.896-7.896z" stroke="#000" stroke-width="3" stroke-miterlimit="10"/></symbol><symbol viewBox="0 0 285.46 265.28" id="construction-2"><path d="M106.13 140.07l116.19 116.19a17.13 17.13 0 0024.23 0l29.89-29.89a17.13 17.13 0 000-24.23L160.25 85.98"/><path d="M106.13 140.07L205.4 40.8a14.69 14.69 0 00-8.05-24.89L124.8 4.19a14.73 14.73 0 00-12.74 4.11L8.3 112.07a14.7 14.7 0 000 20.77l42.14 42.14a14.69 14.69 0 0020.78 0z"/></symbol><symbol viewBox="0 0 65 60" id="engineering"><g clip-path="url(#dclip0_55_124)"><path d="M35.892 27.12L9.124 2.717A4.541 4.541 0 001.525 6.07v47.868a4.537 4.537 0 004.537 4.537h52.49a4.537 4.537 0 003.05-7.892l-4.156-3.786" stroke="#231F20" stroke-width="3" stroke-linecap="round" stroke-linejoin="round"/><path d="M14.816 27.12v13.996a4.16 4.16 0 004.164 4.16h14.968"/><path d="M14.816 27.12v13.996a4.16 4.16 0 004.164 4.16h14.968" stroke="#231F20" stroke-width="2" stroke-linecap="round" stroke-linejoin="round"/><path d="M41.73 50.8V11.247l5.257-9.619 5.262 9.62V50.8h-10.52z" stroke="#231F20" stroke-width="3" stroke-linecap="round" stroke-linejoin="round"/><path d="M7.576 15.678H1.525m6.051 32.709H1.525M7.576 32.03H1.525M41.73 42.263h10.519" stroke="#231F20" stroke-width="2" stroke-linecap="round" stroke-linejoin="round"/></g><defs><clipPath id="dclip0_55_124"><path d="M0 0h64.625v60H0z"/></clipPath></defs></symbol><symbol viewBox="0 0 80 60" id="house"><path d="M15.801 30.708v21.236c0 1.47.509 2.879 1.414 3.918.905 1.04 2.133 1.623 3.413 1.623h38.773a4.292 4.292 0 001.85-.42 4.841 4.841 0 001.568-1.2 5.658 5.658 0 001.048-1.799 6.262 6.262 0 00.368-2.123V30.709" stroke="#000" stroke-width="2" stroke-miterlimit="10" stroke-linecap="round"/><path d="M2.19 31.547l32.7-27.129C36.379 3.19 38.166 2.529 40 2.529c1.834 0 3.622.66 5.111 1.889L77.81 31.547" stroke="#000" stroke-width="4" stroke-miterlimit="10" stroke-linecap="round"/></symbol><symbol viewBox="0 0 60 60" id="interior"><path d="M50.164 2.143H9.836a7.693 7.693 0 00-7.693 7.693v40.328a7.693 7.693 0 007.693 7.693h40.328a7.693 7.693 0 007.693-7.693V9.836a7.693 7.693 0 00-7.693-7.693z" stroke="#000" stroke-width="3" stroke-linecap="round" stroke-linejoin="round"/><path d="M34.286 57.857V38.571h23.571m-.514-10.714H38.057m-12.343 0V2.143" stroke="#000" stroke-width="2" stroke-linecap="round" stroke-linejoin="round"/><path d="M34.286 57.857v-9.643h23.571m-38.571 9.643V38.571h-8.572m15-10.714H2.143" stroke="#000" stroke-width="2" stroke-linecap="round" stroke-linejoin="round"/></symbol><symbol viewBox="0 0 30 30" id="lang__icon"><path d="M15 29.286c7.89 0 14.286-6.396 14.286-14.286S22.89.714 15 .714.714 7.11.714 15 7.11 29.286 15 29.286z" stroke="#000" stroke-linecap="square"/><path d="M14.9 29.2a.172.172 0 00.2 0c3.743-3.457 5.614-8.19 5.614-14.2S18.843 4.257 15.1.8a.172.172 0 00-.2 0C11.157 4.257 9.286 8.99 9.286 15s1.871 10.743 5.614 14.2z" stroke="#000"/><path d="M1.429 19.286H28.57M1.43 10.714h27.14H1.43z" stroke="#000" stroke-linecap="round"/></symbol><symbol viewBox="0 0 195.103 85.805" id="logo-main"><path d="M28.434.425v33.368h-2.818V18.435H5.472v15.358H2.654V.425h2.818v15.333h20.149V.425zM40.687 24.27a14.366 14.366 0 0024.822 0 14.4 14.4 0 000-14.348 14.37 14.37 0 00-24.822 0 14.4 14.4 0 000 14.348zM38.244 8.501a17.081 17.081 0 0114.854-8.5 16.774 16.774 0 018.605 2.291 17.065 17.065 0 016.235 6.21 17.194 17.194 0 010 17.191 17.051 17.051 0 01-6.235 6.213 17.352 17.352 0 01-17.236 0 16.957 16.957 0 01-6.224-6.213 17.286 17.286 0 010-17.191zM111.337.4v33.394h-2.818V5.636a3.042 3.042 0 01.163-.8h-.048L96.046 27.969a1.582 1.582 0 01-2.984 0L80.48 4.839h-.045a2.188 2.188 0 01.163.8v28.158H77.78V.4h1.878a2.056 2.056 0 011.267.341 4.1 4.1 0 01.94 1.185l12.422 22.52a3.131 3.131 0 01.259.94h.048a2.545 2.545 0 01.236-.94l12.422-22.52a3.609 3.609 0 01.937-1.185A2.154 2.154 0 01109.481.4zM121.622 33.794V.4h19.941v2.818H124.44v12.163h13.88v2.821h-13.88v12.774h17.123v2.818zM174.127 31.094a8.862 8.862 0 002.688-1.478 19.2 19.2 0 002.736-2.747l-10.356-10.311a10.178 10.178 0 00-4.476 3.1 7.351 7.351 0 00-1.678 4.769 6.736 6.736 0 001.022 3.651 7.084 7.084 0 002.818 2.559 8.68 8.68 0 004.048.929 10.108 10.108 0 003.2-.47zm14.139 2.7a3.615 3.615 0 01-1.233-.163 3.313 3.313 0 01-.951-.611l-4.462-4.18a17.045 17.045 0 01-5 4.073 12.361 12.361 0 01-5.613 1.258 11.87 11.87 0 01-5.472-1.244 9.485 9.485 0 01-3.817-3.44 9.133 9.133 0 01-1.374-4.943 9.39 9.39 0 011.162-4.721 10.959 10.959 0 012.807-3.31 12.861 12.861 0 013.24-1.878 12.972 12.972 0 01-2.37-3.184 7.938 7.938 0 01-.751-3.581 7.156 7.156 0 011.151-3.921 8.159 8.159 0 013.218-2.877 10.088 10.088 0 014.7-1.07 9.8 9.8 0 014.039.8 15.77 15.77 0 013.71 2.443l-.189.329a2.5 2.5 0 01-.659.715 1.316 1.316 0 01-.752.318 1.673 1.673 0 01-.648-.141 7.808 7.808 0 01-.9-.47 13.939 13.939 0 00-2.136-1.011 7.557 7.557 0 00-2.562-.377 7 7 0 00-3.276.74 5.646 5.646 0 00-2.2 1.951 4.779 4.779 0 00-.774 2.618 6.459 6.459 0 00.647 2.984 13.05 13.05 0 002.407 3.029l11.156 11.13 3.851-5.1a3.667 3.667 0 011.058-.859 2.942 2.942 0 011.363-.293h1.791l-6.083 8.127 6.975 6.857-2.044-.006zM29.872 82.188a22.705 22.705 0 01-12.94 3.617 16.538 16.538 0 01-8.512-2.277 17.117 17.117 0 018.723-31.916 17.1 17.1 0 016.41 1.315A17.946 17.946 0 0129 56.237l-.563.588a2.244 2.244 0 01-1.6.752 1.63 1.63 0 01-1.056-.377 12.77 12.77 0 00-3.958-2.007 15.141 15.141 0 00-4.684-.763 14.28 14.28 0 10-.115 28.56 26.475 26.475 0 005.295-.574 17.526 17.526 0 004.732-1.728v-8.923h-4.436a1.72 1.72 0 01-1.292-.459 1.655 1.655 0 01-.445-1.21v-.822h8.994v12.915zM56.574 74.557l-7.468-17.1a7.011 7.011 0 01-.388-1.067 4.809 4.809 0 01-.1-.811h-.163a5.073 5.073 0 01-.107.8 5.819 5.819 0 01-.411 1.081l-7.445 17.1h16.087zm7.82 10.849H62.68a2.113 2.113 0 01-1.163-.318 1.841 1.841 0 01-.74-.9l-2.958-6.787H39.243l-2.959 6.787a1.991 1.991 0 01-.752.9 2.085 2.085 0 01-1.151.318h-1.714l14.584-33.394h2.562l14.581 33.394zM74.844 67.674h8.29a6.963 6.963 0 003.429-.856 6.542 6.542 0 002.455-2.325 6.043 6.043 0 00.9-3.229 6.16 6.16 0 00-.9-3.3 6.372 6.372 0 00-2.455-2.3 7.183 7.183 0 00-3.451-.833h-8.267v12.842zm-2.818 17.731V52.012h11.226a9.632 9.632 0 014.8 1.222 9.123 9.123 0 013.429 3.347 9.03 9.03 0 011.255 4.687 8.68 8.68 0 01-1.2 4.476 8.887 8.887 0 01-3.125 3.181 7.824 7.824 0 01-3.969 1.177l-.988.023v.022a3.071 3.071 0 01.833.259 1.932 1.932 0 01.6.515l11.395 14.491h-2a2.617 2.617 0 01-2.184-.988L81.066 70.498h-6.224v14.914l-2.815-.006zM124.092 80.912a13.671 13.671 0 005.013-5.1 14.606 14.606 0 000-14.207 13.692 13.692 0 00-5.013-5.093 13.532 13.532 0 00-7-1.869h-9.23v28.135h9.23a13.506 13.506 0 007-1.869zm-19.05-28.9h12.05a16.7 16.7 0 110 33.394h-12.05V52.012zM141.301 85.406V52.012h19.94v2.818h-17.12v12.163h13.88v2.819h-13.88v12.774h17.12v2.818zM195.105 52.012v33.394h-2.137a.93.93 0 01-.515-.189 1.574 1.574 0 01-.47-.493l-20.431-29.121h-.1a5.027 5.027 0 01.377 1.925v27.876h-2.814V52.012h2.159a2.384 2.384 0 011.033.211 2.193 2.193 0 01.822.729l19.676 28.017h.045a4.9 4.9 0 01-.47-1.973V52.012z"/></symbol><symbol viewBox="0 0 32 29" id="mail__icon"><path d="M1.76 4.21l12.677 12.303a2.25 2.25 0 003.12 0L30.241 4.209m-1.551-.58H3.31C2.038 3.628 1 4.63 1 5.86v17.28c0 1.23 1.038 2.233 2.31 2.233h25.38c1.272 0 2.31-1.003 2.31-2.233V5.86c0-1.23-1.038-2.233-2.31-2.233z" stroke="#000" stroke-miterlimit="10"/></symbol><symbol viewBox="0 0 30 30" id="telegram__icon"><path d="M27.615 5.877h0v.008c-.032.439-.19 1.445-.406 2.82l-.011.072a194.36 194.36 0 00-.727 4.919L24.853 24.31l-.002.016-.002.014h0v.001h0v.006l-.005.036a2.422 2.422 0 01-.174.613c-.154.35-.394.64-.78.727-.433.096-1.057-.072-1.695-.37a7.323 7.323 0 01-1.256-.75l-.007-.004-.006-.005c-.07-.053-.338-.229-.71-.473l-.247-.161a205.91 205.91 0 01-1.905-1.266c-1.447-.976-3.038-2.091-3.853-2.81h0l-.005-.004c-.198-.17-.348-.377-.38-.578-.025-.158.002-.437.452-.831l.008-.007.007-.008 7.083-6.763h0l.008-.008a3.79 3.79 0 00.629-.847c.08-.15.151-.313.192-.476a.948.948 0 00-.02-.59.719.719 0 00-.596-.438c-.214-.028-.444.022-.665.098-.45.156-1.077.5-1.929 1.08 0 0 0 0 0 0l-9.428 6.416a2.46 2.46 0 01-.614.193c-.446.08-1.141.1-2.077-.18l-.002-.001-4.302-1.328a.863.863 0 01-.078-.07.394.394 0 01-.118-.187s0 0 0 0c-.002-.01-.016-.08.125-.22.163-.163.502-.386 1.164-.629l.02-.007.02-.01c5.088-2.397 11.057-4.832 16.85-7.195 1.869-.762 3.72-1.517 5.516-2.26l.012-.005c.014-.005.035-.013.062-.021a2.98 2.98 0 01.233-.065 2.15 2.15 0 01.654-.063c.216.019.354.085.437.183.083.097.19.317.146.814z" stroke="#000"/></symbol><symbol viewBox="0 0 47 60" id="tree__icon"><path d="M23.1 43.473c11.252 0 20.373-9.121 20.373-20.373S34.352 2.727 23.1 2.727 2.727 11.848 2.727 23.1 11.848 43.473 23.1 43.473z" stroke="#010101" stroke-width="3" stroke-miterlimit="10"/><path d="M23.1 57.273V13.058m0 12.546l8.864-9.955M23.1 35.166L12.633 21.747" stroke="#010101" stroke-width="2" stroke-linecap="round" stroke-linejoin="round"/></symbol><symbol viewBox="0 0 30 30" id="whatsapp__icon"><path fill-rule="evenodd" clip-rule="evenodd" d="M23 7c-2.125-2.125-5-3.25-7.875-3.25C9 3.75 3.875 8.75 3.875 15c0 2 .5 3.875 1.5 5.625l-1.625 5.75 6-1.5c1.625.875 3.5 1.375 5.25 1.375 6.125 0 11.25-5 11.25-11.25 0-3-1.125-5.875-3.25-8zm-2.875 10.375c-.25-.125-1.625-.875-1.875-.875-.25-.125-.5-.125-.625.125s-.75.875-.875 1.125-.375.25-.625.125S15 17.5 13.875 16.5c-.875-.75-1.375-1.625-1.5-2s0-.375.125-.625c.125-.125.25-.375.375-.5s.125-.25.25-.5 0-.375 0-.5c-.125-.125-.625-1.5-.875-2.125-.25-.5-.5-.5-.625-.5h-.5c-.25 0-.5.125-.75.375s-1 1-1 2.375 1 2.75 1.125 2.875 2 3 4.75 4.25c.625.25 1.25.5 1.625.625.625.25 1.25.125 1.75.125.5-.125 1.625-.625 1.875-1.375s.25-1.25.125-1.375c0-.125-.125-.125-.5-.25z" stroke="#000" stroke-miterlimit="10"/></symbol></svg>